# xmcd
# Copyright (C) 1995-1998 Ti Kan
#
# Track frame offsets:
#       151
#       24154
#       55842
#       83786
#       117458
#       146730
#       171814
#       194524
#       223369
#       263884
#       289142
#       307082
#       332875
#
# Disc length: 4772 seconds
#
# Revision: 0
# Processed by: cddbd v1.5.2PL0 Copyright (c) Steve Scherf et al.
# Submitted via: CD-Transfer v1.0
#
DISCID=cd12a20d
DTITLE=Reggae Classics - 
DYEAR=1900
DGENRE=
TTITLE0=Dub Syndicate Stoned Imaculate
TTITLE1=Marley, Bob One Love (Ext. Mix)
TTITLE2=Wailer, Bunny Get Up, Stand Up
TTITLE3=Cocoa Tea Reggae Man
TTITLE4=Pablo, Augustus and Wayne Jarret Youth Man
TTITLE5=Andy, Horace and Big Youth Love Is The Light
TTITLE6=Black Uhuru Sponji Reggae
TTITLE7=Wailing Souls Kingdom Rise, Kingdom Fall
TTITLE8=Prince Far I and Errol Holt Talking Rights
TTITLE9=Shbba Ranks &cocoa Tea Pirates Anthem
TTITLE10=Levy, Barringto and Cutty Ranks Dancehall Rock
TTITLE11=Junior Reed One Blood
TTITLE12=Tippa Irie Hello Darling
EXTD=
EXTT0=
EXTT1=
EXTT2=
EXTT3=
EXTT4=
EXTT5=
EXTT6=
EXTT7=
EXTT8=
EXTT9=
EXTT10=
EXTT11=
EXTT12=
PLAYORDER=
